<svg id="visual" viewBox="0 0 900 600" width="900" height="600" xmlns="http://www.w3.org/2000/svg" xmlns:xlink="http://www.w3.org/1999/xlink" version="1.1"><rect x="0" y="0" width="900" height="600" fill="#FFFFFF"></rect><defs><linearGradient id="grad1_0" x1="33.3%" y1="100%" x2="100%" y2="0%"><stop offset="20%" stop-color="#ffffff" stop-opacity="1"></stop><stop offset="80%" stop-color="#ffffff" stop-opacity="1"></stop></linearGradient></defs><defs><linearGradient id="grad2_0" x1="0%" y1="100%" x2="66.7%" y2="0%"><stop offset="20%" stop-color="#ffffff" stop-opacity="1"></stop><stop offset="80%" stop-color="#ffffff" stop-opacity="1"></stop></linearGradient></defs><g transform="translate(900, 600)"><path d="M-243.4 0C-241 -33 -238.7 -65.9 -224.8 -93.1C-211 -120.3 -185.8 -141.8 -161.9 -161.9C-138.1 -182.1 -115.5 -201 -88.8 -214.3C-62 -227.7 -31 -235.5 0 -243.4L0 0Z" fill="#65C9FF"></path></g><g transform="translate(0, 0)"><path d="M243.4 0C218.3 23.3 193.2 46.7 183.9 76.2C174.5 105.6 180.8 141.3 168.3 168.3C155.8 195.3 124.3 213.8 93.1 224.8C61.9 235.9 31 239.7 0 243.4L0 0Z" fill="#65C9FF"></path></g></svg>